<svg width="454" height="128" viewBox="0 0 454 128" fill="none" xmlns="http://www.w3.org/2000/svg">
<path d="M0 32C0 14.3269 14.3269 0 32 0H96C113.673 0 128 14.3269 128 32V96C128 113.673 113.673 128 96 128H32C14.3269 128 0 113.673 0 96V32Z" fill="#345339"/>
<path d="M87.272 19.4C88.7227 19.4 89.448 23.1973 89.448 30.792C89.448 38.3013 88.7227 42.056 87.272 42.056H63.848V56.648H79.464C80.9147 56.648 81.64 59.976 81.64 66.632C81.64 73.2027 80.9573 76.488 79.592 76.488H63.848V107.336C63.848 108.531 62.2267 109.299 58.984 109.64C55.8267 110.067 53.1813 110.28 51.048 110.28L45.032 110.024C40.8507 109.512 38.76 108.659 38.76 107.464V22.728C38.76 21.3627 39.016 20.4667 39.528 20.04C40.1253 19.6133 40.9787 19.4 42.088 19.4H87.272Z" fill="white"/>
<path d="M186.256 30.96C186.256 29.2533 190.864 28.4 200.08 28.4C209.381 28.4 214.032 29.2533 214.032 30.96V89.712C214.032 98.416 210.917 105.541 204.688 111.088C198.459 116.549 189.84 119.28 178.832 119.28C167.909 119.28 158.992 116.464 152.08 110.832C145.253 105.115 141.84 97.4347 141.84 87.792V31.088C141.84 29.3813 146.448 28.528 155.664 28.528C164.965 28.528 169.616 29.3813 169.616 31.088V88.816C169.616 90.5227 170.512 91.888 172.304 92.912C174.181 93.936 176.144 94.448 178.192 94.448C180.24 94.448 182.075 93.9787 183.696 93.04C185.403 92.1013 186.256 90.6933 186.256 88.816V30.96Z" fill="#345339"/>
<path d="M294.919 115.184C294.919 116.976 290.908 117.872 282.887 117.872C274.866 117.872 270.514 117.232 269.831 115.952L248.455 76.016V115.824C248.455 117.36 244.487 118.128 236.551 118.128C228.7 118.128 224.775 117.36 224.775 115.824V30.192C224.775 28.912 228.146 28.272 234.887 28.272C237.532 28.272 240.604 28.528 244.103 29.04C247.687 29.4667 249.863 30.32 250.631 31.6L271.111 71.024V30.832C271.111 29.2107 275.079 28.4 283.015 28.4C290.951 28.4 294.919 29.2107 294.919 30.832V115.184Z" fill="#345339"/>
<path d="M367.935 118.256C360.511 118.256 356.5 117.061 355.903 114.672L351.679 98.16H331.327L327.615 114.032C327.103 116.677 323.007 118 315.327 118C311.231 118 308.202 117.787 306.239 117.36C304.276 116.848 303.295 116.464 303.295 116.208L325.951 29.552C325.951 28.8693 331.796 28.528 343.487 28.528C355.178 28.528 361.023 28.8693 361.023 29.552L383.167 116.336C383.167 116.933 381.204 117.403 377.279 117.744C373.354 118.085 370.239 118.256 367.935 118.256ZM334.527 81.904H347.967L342.207 55.408H341.439L334.527 81.904Z" fill="#345339"/>
<path d="M428.258 27.248C434.487 27.248 439.949 28.144 444.642 29.936C449.421 31.6427 451.81 33.9893 451.81 36.976C451.81 39.9627 450.658 43.6747 448.354 48.112C446.135 52.464 444.258 54.64 442.722 54.64C442.295 54.64 441.783 54.4267 441.186 54C440.674 53.488 439.394 52.976 437.346 52.464C435.383 51.8667 433.677 51.568 432.226 51.568C427.277 51.568 423.266 53.3173 420.194 56.816C417.207 60.3147 415.714 65.6907 415.714 72.944C415.714 80.112 417.25 85.4453 420.322 88.944C423.479 92.4427 427.447 94.192 432.226 94.192C434.189 94.192 436.365 93.936 438.754 93.424C441.229 92.8267 442.978 92.016 444.002 90.992C444.173 90.8213 444.514 90.736 445.026 90.736C445.538 90.736 446.477 91.7173 447.842 93.68C449.293 95.5573 450.615 98.0747 451.81 101.232C453.005 104.304 453.602 106.693 453.602 108.4C453.602 111.728 451.042 114.373 445.922 116.336C440.802 118.299 434.743 119.28 427.746 119.28C416.482 119.28 407.223 115.312 399.97 107.376C392.717 99.44 389.09 88.2613 389.09 73.84C389.09 59.3333 392.802 47.9413 400.226 39.664C407.735 31.3867 417.079 27.248 428.258 27.248Z" fill="#345339"/>
</svg>
