<svg width="718" height="724" viewBox="0 0 718 724" fill="none" xmlns="http://www.w3.org/2000/svg">
<path d="M34.3886 724C31.1886 724 28.2286 723.48 25.5086 722.44C22.8286 721.36 20.4886 719.86 18.4886 717.94C16.5286 715.98 14.9886 713.7 13.8686 711.1C12.7486 708.5 12.1886 705.64 12.1886 702.52C12.1886 699.4 12.7486 696.54 13.8686 693.94C14.9886 691.34 16.5486 689.08 18.5486 687.16C20.5486 685.2 22.8886 683.7 25.5686 682.66C28.2886 681.58 31.2486 681.04 34.4486 681.04C37.6886 681.04 40.6686 681.6 43.3886 682.72C46.1486 683.8 48.4886 685.42 50.4086 687.58L46.5086 691.36C44.9086 689.68 43.1086 688.44 41.1086 687.64C39.1086 686.8 36.9686 686.38 34.6886 686.38C32.3286 686.38 30.1286 686.78 28.0886 687.58C26.0886 688.38 24.3486 689.5 22.8686 690.94C21.3886 692.38 20.2286 694.1 19.3886 696.1C18.5886 698.06 18.1886 700.2 18.1886 702.52C18.1886 704.84 18.5886 707 19.3886 709C20.2286 710.96 21.3886 712.66 22.8686 714.1C24.3486 715.54 26.0886 716.66 28.0886 717.46C30.1286 718.26 32.3286 718.66 34.6886 718.66C36.9686 718.66 39.1086 718.26 41.1086 717.46C43.1086 716.62 44.9086 715.34 46.5086 713.62L50.4086 717.4C48.4886 719.56 46.1486 721.2 43.3886 722.32C40.6686 723.44 37.6686 724 34.3886 724Z" fill="white"/>
<path d="M70.4003 723.88C67.2003 723.88 64.3603 723.18 61.8803 721.78C59.4003 720.38 57.4403 718.46 56.0003 716.02C54.5603 713.54 53.8403 710.74 53.8403 707.62C53.8403 704.46 54.5603 701.66 56.0003 699.22C57.4403 696.78 59.4003 694.88 61.8803 693.52C64.3603 692.12 67.2003 691.42 70.4003 691.42C73.5603 691.42 76.3803 692.12 78.8603 693.52C81.3803 694.88 83.3403 696.78 84.7403 699.22C86.1803 701.62 86.9003 704.42 86.9003 707.62C86.9003 710.78 86.1803 713.58 84.7403 716.02C83.3403 718.46 81.3803 720.38 78.8603 721.78C76.3803 723.18 73.5603 723.88 70.4003 723.88ZM70.4003 718.84C72.4403 718.84 74.2603 718.38 75.8603 717.46C77.5003 716.54 78.7803 715.24 79.7003 713.56C80.6203 711.84 81.0803 709.86 81.0803 707.62C81.0803 705.34 80.6203 703.38 79.7003 701.74C78.7803 700.06 77.5003 698.76 75.8603 697.84C74.2603 696.92 72.4403 696.46 70.4003 696.46C68.3603 696.46 66.5403 696.92 64.9403 697.84C63.3403 698.76 62.0603 700.06 61.1003 701.74C60.1403 703.38 59.6603 705.34 59.6603 707.62C59.6603 709.86 60.1403 711.84 61.1003 713.56C62.0603 715.24 63.3403 716.54 64.9403 717.46C66.5403 718.38 68.3603 718.84 70.4003 718.84Z" fill="white"/>
<path d="M111.846 691.42C114.446 691.42 116.726 691.92 118.686 692.92C120.686 693.92 122.246 695.44 123.366 697.48C124.486 699.52 125.046 702.1 125.046 705.22V723.52H119.286V705.88C119.286 702.8 118.526 700.48 117.006 698.92C115.526 697.36 113.426 696.58 110.706 696.58C108.666 696.58 106.886 696.98 105.366 697.78C103.846 698.58 102.666 699.76 101.826 701.32C101.026 702.88 100.626 704.82 100.626 707.14V723.52H94.8662V691.72H100.386V700.3L99.4863 698.02C100.526 695.94 102.126 694.32 104.286 693.16C106.446 692 108.966 691.42 111.846 691.42Z" fill="white"/>
<path d="M149.566 723.88C146.326 723.88 143.426 723.18 140.866 721.78C138.346 720.38 136.366 718.46 134.926 716.02C133.486 713.58 132.766 710.78 132.766 707.62C132.766 704.46 133.486 701.66 134.926 699.22C136.366 696.78 138.346 694.88 140.866 693.52C143.426 692.12 146.326 691.42 149.566 691.42C152.446 691.42 155.006 692 157.246 693.16C159.526 694.28 161.286 695.96 162.526 698.2L158.146 701.02C157.106 699.46 155.826 698.32 154.306 697.6C152.826 696.84 151.226 696.46 149.506 696.46C147.426 696.46 145.566 696.92 143.926 697.84C142.286 698.76 140.986 700.06 140.026 701.74C139.066 703.38 138.586 705.34 138.586 707.62C138.586 709.9 139.066 711.88 140.026 713.56C140.986 715.24 142.286 716.54 143.926 717.46C145.566 718.38 147.426 718.84 149.506 718.84C151.226 718.84 152.826 718.48 154.306 717.76C155.826 717 157.106 715.84 158.146 714.28L162.526 717.04C161.286 719.24 159.526 720.94 157.246 722.14C155.006 723.3 152.446 723.88 149.566 723.88Z" fill="white"/>
<path d="M169.983 723.52V691.72H175.503V700.36L174.963 698.2C175.843 696 177.323 694.32 179.403 693.16C181.483 692 184.043 691.42 187.083 691.42V697C186.843 696.96 186.603 696.94 186.363 696.94C186.163 696.94 185.963 696.94 185.763 696.94C182.683 696.94 180.243 697.86 178.443 699.7C176.643 701.54 175.743 704.2 175.743 707.68V723.52H169.983Z" fill="white"/>
<path d="M208.05 723.88C204.65 723.88 201.65 723.18 199.05 721.78C196.49 720.38 194.49 718.46 193.05 716.02C191.65 713.58 190.95 710.78 190.95 707.62C190.95 704.46 191.63 701.66 192.99 699.22C194.39 696.78 196.29 694.88 198.69 693.52C201.13 692.12 203.87 691.42 206.91 691.42C209.99 691.42 212.71 692.1 215.07 693.46C217.43 694.82 219.27 696.74 220.59 699.22C221.95 701.66 222.63 704.52 222.63 707.8C222.63 708.04 222.61 708.32 222.57 708.64C222.57 708.96 222.55 709.26 222.51 709.54H195.45V705.4H219.51L217.17 706.84C217.21 704.8 216.79 702.98 215.91 701.38C215.03 699.78 213.81 698.54 212.25 697.66C210.73 696.74 208.95 696.28 206.91 696.28C204.91 696.28 203.13 696.74 201.57 697.66C200.01 698.54 198.79 699.8 197.91 701.44C197.03 703.04 196.59 704.88 196.59 706.96V707.92C196.59 710.04 197.07 711.94 198.03 713.62C199.03 715.26 200.41 716.54 202.17 717.46C203.93 718.38 205.95 718.84 208.23 718.84C210.11 718.84 211.81 718.52 213.33 717.88C214.89 717.24 216.25 716.28 217.41 715L220.59 718.72C219.15 720.4 217.35 721.68 215.19 722.56C213.07 723.44 210.69 723.88 208.05 723.88Z" fill="white"/>
<path d="M241.548 723.88C238.348 723.88 235.868 723.02 234.108 721.3C232.348 719.58 231.468 717.12 231.468 713.92V684.76H237.228V713.68C237.228 715.4 237.648 716.72 238.488 717.64C239.368 718.56 240.608 719.02 242.208 719.02C244.008 719.02 245.508 718.52 246.708 717.52L248.508 721.66C247.628 722.42 246.568 722.98 245.328 723.34C244.128 723.7 242.868 723.88 241.548 723.88ZM226.068 696.46V691.72H246.348V696.46H226.068Z" fill="white"/>
<path d="M255.472 723.52V691.72H261.232V723.52H255.472ZM258.352 685.6C257.232 685.6 256.292 685.24 255.532 684.52C254.812 683.8 254.452 682.92 254.452 681.88C254.452 680.8 254.812 679.9 255.532 679.18C256.292 678.46 257.232 678.1 258.352 678.1C259.472 678.1 260.392 678.46 261.112 679.18C261.872 679.86 262.252 680.72 262.252 681.76C262.252 682.84 261.892 683.76 261.172 684.52C260.452 685.24 259.512 685.6 258.352 685.6Z" fill="white"/>
<path d="M269.17 723.52V719.8L289.57 694.48L290.71 696.46H269.53V691.72H295.33V695.5L274.93 720.76L273.61 718.78H295.81V723.52H269.17Z" fill="white"/>
<path d="M323.259 723.52V716.8L322.959 715.54V704.08C322.959 701.64 322.239 699.76 320.799 698.44C319.399 697.08 317.279 696.4 314.439 696.4C312.559 696.4 310.719 696.72 308.919 697.36C307.119 697.96 305.599 698.78 304.359 699.82L301.959 695.5C303.599 694.18 305.559 693.18 307.839 692.5C310.159 691.78 312.579 691.42 315.099 691.42C319.459 691.42 322.819 692.48 325.179 694.6C327.539 696.72 328.719 699.96 328.719 704.32V723.52H323.259ZM312.819 723.88C310.459 723.88 308.379 723.48 306.579 722.68C304.819 721.88 303.459 720.78 302.499 719.38C301.539 717.94 301.059 716.32 301.059 714.52C301.059 712.8 301.459 711.24 302.259 709.84C303.099 708.44 304.439 707.32 306.279 706.48C308.159 705.64 310.679 705.22 313.839 705.22H323.919V709.36H314.079C311.199 709.36 309.259 709.84 308.259 710.8C307.259 711.76 306.759 712.92 306.759 714.28C306.759 715.84 307.379 717.1 308.619 718.06C309.859 718.98 311.579 719.44 313.779 719.44C315.939 719.44 317.819 718.96 319.419 718C321.059 717.04 322.239 715.64 322.959 713.8L324.099 717.76C323.339 719.64 321.999 721.14 320.079 722.26C318.159 723.34 315.739 723.88 312.819 723.88Z" fill="white"/>
<path d="M356.358 691.42C358.958 691.42 361.238 691.92 363.198 692.92C365.198 693.92 366.758 695.44 367.878 697.48C368.998 699.52 369.558 702.1 369.558 705.22V723.52H363.798V705.88C363.798 702.8 363.038 700.48 361.518 698.92C360.038 697.36 357.938 696.58 355.218 696.58C353.178 696.58 351.398 696.98 349.878 697.78C348.358 698.58 347.178 699.76 346.338 701.32C345.538 702.88 345.138 704.82 345.138 707.14V723.52H339.378V691.72H344.898V700.3L343.998 698.02C345.038 695.94 346.638 694.32 348.798 693.16C350.958 692 353.478 691.42 356.358 691.42Z" fill="white"/>
<path d="M393.358 723.88C390.278 723.88 387.518 723.2 385.078 721.84C382.678 720.48 380.778 718.58 379.378 716.14C377.978 713.7 377.278 710.86 377.278 707.62C377.278 704.38 377.978 701.56 379.378 699.16C380.778 696.72 382.678 694.82 385.078 693.46C387.518 692.1 390.278 691.42 393.358 691.42C396.038 691.42 398.458 692.02 400.618 693.22C402.778 694.42 404.498 696.22 405.778 698.62C407.098 701.02 407.758 704.02 407.758 707.62C407.758 711.22 407.118 714.22 405.838 716.62C404.598 719.02 402.898 720.84 400.738 722.08C398.578 723.28 396.118 723.88 393.358 723.88ZM393.838 718.84C395.838 718.84 397.638 718.38 399.238 717.46C400.878 716.54 402.158 715.24 403.078 713.56C404.038 711.84 404.518 709.86 404.518 707.62C404.518 705.34 404.038 703.38 403.078 701.74C402.158 700.06 400.878 698.76 399.238 697.84C397.638 696.92 395.838 696.46 393.838 696.46C391.798 696.46 389.978 696.92 388.378 697.84C386.778 698.76 385.498 700.06 384.538 701.74C383.578 703.38 383.098 705.34 383.098 707.62C383.098 709.86 383.578 711.84 384.538 713.56C385.498 715.24 386.778 716.54 388.378 717.46C389.978 718.38 391.798 718.84 393.838 718.84ZM404.698 723.52V714.94L405.058 707.56L404.458 700.18V679H410.218V723.52H404.698Z" fill="white"/>
<path d="M434.736 723.88C431.536 723.88 428.696 723.18 426.216 721.78C423.736 720.38 421.776 718.46 420.336 716.02C418.896 713.54 418.176 710.74 418.176 707.62C418.176 704.46 418.896 701.66 420.336 699.22C421.776 696.78 423.736 694.88 426.216 693.52C428.696 692.12 431.536 691.42 434.736 691.42C437.896 691.42 440.716 692.12 443.196 693.52C445.716 694.88 447.676 696.78 449.076 699.22C450.516 701.62 451.236 704.42 451.236 707.62C451.236 710.78 450.516 713.58 449.076 716.02C447.676 718.46 445.716 720.38 443.196 721.78C440.716 723.18 437.896 723.88 434.736 723.88ZM434.736 718.84C436.776 718.84 438.596 718.38 440.196 717.46C441.836 716.54 443.116 715.24 444.036 713.56C444.956 711.84 445.416 709.86 445.416 707.62C445.416 705.34 444.956 703.38 444.036 701.74C443.116 700.06 441.836 698.76 440.196 697.84C438.596 696.92 436.776 696.46 434.736 696.46C432.696 696.46 430.876 696.92 429.276 697.84C427.676 698.76 426.396 700.06 425.436 701.74C424.476 703.38 423.996 705.34 423.996 707.62C423.996 709.86 424.476 711.84 425.436 713.56C426.396 715.24 427.676 716.54 429.276 717.46C430.876 718.38 432.696 718.84 434.736 718.84Z" fill="white"/>
<path d="M476.155 723.52V681.52H493.855C498.335 681.52 502.275 682.4 505.675 684.16C509.115 685.92 511.775 688.38 513.655 691.54C515.575 694.7 516.535 698.36 516.535 702.52C516.535 706.68 515.575 710.34 513.655 713.5C511.775 716.66 509.115 719.12 505.675 720.88C502.275 722.64 498.335 723.52 493.855 723.52H476.155ZM482.155 718.3H493.495C496.975 718.3 499.975 717.64 502.495 716.32C505.055 715 507.035 713.16 508.435 710.8C509.835 708.4 510.535 705.64 510.535 702.52C510.535 699.36 509.835 696.6 508.435 694.24C507.035 691.88 505.055 690.04 502.495 688.72C499.975 687.4 496.975 686.74 493.495 686.74H482.155V718.3Z" fill="white"/>
<path d="M524.886 723.52V691.72H530.646V723.52H524.886ZM527.766 685.6C526.646 685.6 525.706 685.24 524.946 684.52C524.226 683.8 523.866 682.92 523.866 681.88C523.866 680.8 524.226 679.9 524.946 679.18C525.706 678.46 526.646 678.1 527.766 678.1C528.886 678.1 529.806 678.46 530.526 679.18C531.286 679.86 531.666 680.72 531.666 681.76C531.666 682.84 531.306 683.76 530.586 684.52C529.866 685.24 528.926 685.6 527.766 685.6Z" fill="white"/>
<path d="M541.644 723.52V691.72H547.164V700.36L546.624 698.2C547.504 696 548.984 694.32 551.064 693.16C553.144 692 555.704 691.42 558.744 691.42V697C558.504 696.96 558.264 696.94 558.024 696.94C557.824 696.94 557.624 696.94 557.424 696.94C554.344 696.94 551.904 697.86 550.104 699.7C548.304 701.54 547.404 704.2 547.404 707.68V723.52H541.644Z" fill="white"/>
<path d="M579.71 723.88C576.31 723.88 573.31 723.18 570.71 721.78C568.15 720.38 566.15 718.46 564.71 716.02C563.31 713.58 562.61 710.78 562.61 707.62C562.61 704.46 563.29 701.66 564.65 699.22C566.05 696.78 567.95 694.88 570.35 693.52C572.79 692.12 575.53 691.42 578.57 691.42C581.65 691.42 584.37 692.1 586.73 693.46C589.09 694.82 590.93 696.74 592.25 699.22C593.61 701.66 594.29 704.52 594.29 707.8C594.29 708.04 594.27 708.32 594.23 708.64C594.23 708.96 594.21 709.26 594.17 709.54H567.11V705.4H591.17L588.83 706.84C588.87 704.8 588.45 702.98 587.57 701.38C586.69 699.78 585.47 698.54 583.91 697.66C582.39 696.74 580.61 696.28 578.57 696.28C576.57 696.28 574.79 696.74 573.23 697.66C571.67 698.54 570.45 699.8 569.57 701.44C568.69 703.04 568.25 704.88 568.25 706.96V707.92C568.25 710.04 568.73 711.94 569.69 713.62C570.69 715.26 572.07 716.54 573.83 717.46C575.59 718.38 577.61 718.84 579.89 718.84C581.77 718.84 583.47 718.52 584.99 717.88C586.55 717.24 587.91 716.28 589.07 715L592.25 718.72C590.81 720.4 589.01 721.68 586.85 722.56C584.73 723.44 582.35 723.88 579.71 723.88Z" fill="white"/>
<path d="M602.288 723.52V691.72H608.048V723.52H602.288ZM605.168 685.6C604.048 685.6 603.108 685.24 602.348 684.52C601.628 683.8 601.268 682.92 601.268 681.88C601.268 680.8 601.628 679.9 602.348 679.18C603.108 678.46 604.048 678.1 605.168 678.1C606.288 678.1 607.208 678.46 607.928 679.18C608.688 679.86 609.068 680.72 609.068 681.76C609.068 682.84 608.708 683.76 607.988 684.52C607.268 685.24 606.328 685.6 605.168 685.6Z" fill="white"/>
<path d="M629.966 723.88C626.766 723.88 624.286 723.02 622.526 721.3C620.766 719.58 619.886 717.12 619.886 713.92V684.76H625.646V713.68C625.646 715.4 626.066 716.72 626.906 717.64C627.786 718.56 629.026 719.02 630.626 719.02C632.426 719.02 633.926 718.52 635.126 717.52L636.926 721.66C636.046 722.42 634.986 722.98 633.746 723.34C632.546 723.7 631.286 723.88 629.966 723.88ZM614.486 696.46V691.72H634.766V696.46H614.486Z" fill="white"/>
<path d="M656.455 723.88C653.255 723.88 650.415 723.18 647.935 721.78C645.455 720.38 643.495 718.46 642.055 716.02C640.615 713.54 639.895 710.74 639.895 707.62C639.895 704.46 640.615 701.66 642.055 699.22C643.495 696.78 645.455 694.88 647.935 693.52C650.415 692.12 653.255 691.42 656.455 691.42C659.615 691.42 662.435 692.12 664.915 693.52C667.435 694.88 669.395 696.78 670.795 699.22C672.235 701.62 672.955 704.42 672.955 707.62C672.955 710.78 672.235 713.58 670.795 716.02C669.395 718.46 667.435 720.38 664.915 721.78C662.435 723.18 659.615 723.88 656.455 723.88ZM656.455 718.84C658.495 718.84 660.315 718.38 661.915 717.46C663.555 716.54 664.835 715.24 665.755 713.56C666.675 711.84 667.135 709.86 667.135 707.62C667.135 705.34 666.675 703.38 665.755 701.74C664.835 700.06 663.555 698.76 661.915 697.84C660.315 696.92 658.495 696.46 656.455 696.46C654.415 696.46 652.595 696.92 650.995 697.84C649.395 698.76 648.115 700.06 647.155 701.74C646.195 703.38 645.715 705.34 645.715 707.62C645.715 709.86 646.195 711.84 647.155 713.56C648.115 715.24 649.395 716.54 650.995 717.46C652.595 718.38 654.415 718.84 656.455 718.84Z" fill="white"/>
<path d="M690.041 723.88C687.401 723.88 684.881 723.52 682.481 722.8C680.121 722.08 678.261 721.2 676.901 720.16L679.301 715.6C680.661 716.52 682.341 717.3 684.341 717.94C686.341 718.58 688.381 718.9 690.461 718.9C693.141 718.9 695.061 718.52 696.221 717.76C697.421 717 698.021 715.94 698.021 714.58C698.021 713.58 697.661 712.8 696.941 712.24C696.221 711.68 695.261 711.26 694.061 710.98C692.901 710.7 691.601 710.46 690.161 710.26C688.721 710.02 687.281 709.74 685.841 709.42C684.401 709.06 683.081 708.58 681.881 707.98C680.681 707.34 679.721 706.48 679.001 705.4C678.281 704.28 677.921 702.8 677.921 700.96C677.921 699.04 678.461 697.36 679.541 695.92C680.621 694.48 682.141 693.38 684.101 692.62C686.101 691.82 688.461 691.42 691.181 691.42C693.261 691.42 695.361 691.68 697.481 692.2C699.641 692.68 701.401 693.38 702.761 694.3L700.301 698.86C698.861 697.9 697.361 697.24 695.801 696.88C694.241 696.52 692.681 696.34 691.121 696.34C688.601 696.34 686.721 696.76 685.481 697.6C684.241 698.4 683.621 699.44 683.621 700.72C683.621 701.8 683.981 702.64 684.701 703.24C685.461 703.8 686.421 704.24 687.581 704.56C688.781 704.88 690.101 705.16 691.541 705.4C692.981 705.6 694.421 705.88 695.861 706.24C697.301 706.56 698.601 707.02 699.761 707.62C700.961 708.22 701.921 709.06 702.641 710.14C703.401 711.22 703.781 712.66 703.781 714.46C703.781 716.38 703.221 718.04 702.101 719.44C700.981 720.84 699.401 721.94 697.361 722.74C695.321 723.5 692.881 723.88 690.041 723.88Z" fill="white"/>
<path d="M26.9141 604.76C27.9274 604.76 28.4341 606.627 28.4341 610.36C28.4341 611.48 28.3007 612.813 28.0341 614.36C27.8207 615.853 27.3941 616.6 26.7541 616.6H16.5941V624.6H31.3141C32.2207 624.6 32.8341 625.773 33.1541 628.12C33.3141 629.133 33.3941 630.227 33.3941 631.4C33.3941 632.52 33.2341 633.987 32.9141 635.8C32.5941 637.613 32.0607 638.52 31.3141 638.52H3.95406C1.9274 638.52 0.914062 637.693 0.914062 636.04V584.6C0.914062 583.213 1.5274 582.52 2.75406 582.52H31.3941C32.5141 582.52 33.0741 584.893 33.0741 589.64C33.0741 594.333 32.5141 596.68 31.3941 596.68H16.5941V604.76H26.9141Z" fill="white"/>
<path d="M42.4472 619C43.4605 619.8 45.1939 620.893 47.6472 622.28C50.1539 623.667 52.5272 624.36 54.7672 624.36C57.0605 624.36 58.2072 623.48 58.2072 621.72C58.2072 620.92 57.8872 620.227 57.2472 619.64C56.6072 619 55.4339 618.28 53.7272 617.48C52.0205 616.68 50.7405 616.067 49.8872 615.64C49.0339 615.16 47.8872 614.413 46.4472 613.4C45.0605 612.333 43.9939 611.24 43.2472 610.12C41.1139 607.08 40.0472 603.213 40.0472 598.52C40.0472 593.827 41.7805 589.88 45.2472 586.68C48.7672 583.427 53.3539 581.8 59.0072 581.8C62.8472 581.8 66.3939 582.227 69.6472 583.08C72.9005 583.88 74.5805 584.947 74.6872 586.28C74.6872 586.44 74.6872 586.6 74.6872 586.76C74.6872 588.627 74.1005 591 72.9272 593.88C71.7539 596.707 70.9272 598.28 70.4472 598.6C67.0339 596.84 63.9672 595.96 61.2472 595.96C58.5805 595.96 57.2472 596.92 57.2472 598.84C57.2472 600.013 58.2339 601.053 60.2072 601.96C60.6339 602.173 61.2472 602.467 62.0472 602.84C62.8472 603.213 63.7539 603.667 64.7672 604.2C65.8339 604.68 66.9539 605.32 68.1272 606.12C69.3539 606.867 70.6605 607.88 72.0472 609.16C74.8739 611.827 76.2872 615.347 76.2872 619.72C76.2872 625.427 74.7139 630.093 71.5672 633.72C68.4205 637.347 63.5672 639.213 57.0072 639.32C53.8072 639.32 50.9005 639.053 48.2872 638.52C45.7272 637.987 43.4872 636.947 41.5672 635.4C39.6472 633.853 38.6872 631.987 38.6872 629.8C38.6872 627.613 39.0872 625.453 39.8872 623.32C40.6872 621.133 41.5405 619.693 42.4472 619Z" fill="white"/>
<path d="M105.747 581.8C109.641 581.8 113.054 582.36 115.987 583.48C118.974 584.547 120.467 586.013 120.467 587.88C120.467 589.747 119.747 592.067 118.307 594.84C116.921 597.56 115.747 598.92 114.787 598.92C114.521 598.92 114.201 598.787 113.827 598.52C113.507 598.2 112.707 597.88 111.427 597.56C110.201 597.187 109.134 597 108.227 597C105.134 597 102.627 598.093 100.707 600.28C98.8405 602.467 97.9072 605.827 97.9072 610.36C97.9072 614.84 98.8672 618.173 100.787 620.36C102.761 622.547 105.241 623.64 108.227 623.64C109.454 623.64 110.814 623.48 112.307 623.16C113.854 622.787 114.947 622.28 115.587 621.64C115.694 621.533 115.907 621.48 116.227 621.48C116.547 621.48 117.134 622.093 117.987 623.32C118.894 624.493 119.721 626.067 120.467 628.04C121.214 629.96 121.587 631.453 121.587 632.52C121.587 634.6 119.987 636.253 116.787 637.48C113.587 638.707 109.801 639.32 105.427 639.32C98.3872 639.32 92.6005 636.84 88.0672 631.88C83.5339 626.92 81.2672 619.933 81.2672 610.92C81.2672 601.853 83.5872 594.733 88.2272 589.56C92.9205 584.387 98.7605 581.8 105.747 581.8Z" fill="white"/>
<path d="M142.991 637.4C142.991 638.253 140.458 638.68 135.391 638.68C130.271 638.68 127.711 638.28 127.711 637.48V585.32C127.711 583.453 128.698 582.52 130.671 582.52H145.951C159.978 582.52 166.991 587.987 166.991 598.92C166.991 602.227 166.351 605.24 165.071 607.96C163.791 610.627 161.978 612.76 159.631 614.36L169.711 631.16C169.284 632.44 167.898 633.907 165.551 635.56C162.351 637.853 159.711 639 157.631 639C155.551 639 154.004 638.253 152.991 636.76L145.471 619.24H142.991V637.4ZM142.991 596.68V608.68H143.391C148.458 608.68 150.991 606.573 150.991 602.36C150.991 600.44 150.484 599.027 149.471 598.12C148.511 597.16 146.911 596.68 144.671 596.68H142.991Z" fill="white"/>
<path d="M180.178 624.76V596.28H174.498C173.592 596.28 172.952 595.133 172.578 592.84C172.418 591.72 172.338 590.573 172.338 589.4C172.338 588.227 172.418 587.08 172.578 585.96C172.952 583.667 173.592 582.52 174.498 582.52H201.378C202.285 582.52 202.898 583.667 203.218 585.96C203.432 587.08 203.538 588.227 203.538 589.4C203.538 590.573 203.432 591.72 203.218 592.84C202.898 595.133 202.285 596.28 201.378 596.28H196.018V624.76H201.618C202.525 624.76 203.165 625.907 203.538 628.2C203.752 629.32 203.858 630.467 203.858 631.64C203.858 632.813 203.752 633.96 203.538 635.08C203.165 637.373 202.525 638.52 201.618 638.52H174.658C173.752 638.52 173.138 637.373 172.818 635.08C172.605 633.96 172.498 632.813 172.498 631.64C172.498 630.467 172.605 629.32 172.818 628.2C173.138 625.907 173.752 624.76 174.658 624.76H180.178Z" fill="white"/>
<path d="M233.275 637.24C233.275 638.307 230.635 638.84 225.355 638.84C220.075 638.84 217.435 638.307 217.435 637.24V597.08H207.835C206.929 597.08 206.289 595.853 205.915 593.4C205.755 592.227 205.675 591.027 205.675 589.8C205.675 588.573 205.755 587.373 205.915 586.2C206.289 583.747 206.929 582.52 207.835 582.52H242.635C243.542 582.52 244.182 583.747 244.555 586.2C244.715 587.373 244.795 588.573 244.795 589.8C244.795 591.027 244.715 592.227 244.555 593.4C244.182 595.853 243.542 597.08 242.635 597.08H233.275V637.24Z" fill="white"/>
<path d="M267.672 580.2C267.192 580.2 266.578 579.667 265.832 578.6C264.872 577.107 264.392 575.853 264.392 574.84C264.392 573.827 264.552 573.16 264.872 572.84C273.565 568.04 277.992 565.64 278.152 565.64C278.685 565.64 279.352 566.28 280.152 567.56C281.378 569.427 281.992 571.187 281.992 572.84C281.992 573.427 281.858 573.853 281.592 574.12C272.418 578.173 267.778 580.2 267.672 580.2ZM273.112 639.32C265.645 639.32 259.538 636.867 254.792 631.96C250.098 627.053 247.752 619.907 247.752 610.52C247.752 601.08 250.125 593.933 254.872 589.08C259.672 584.227 265.832 581.8 273.352 581.8C280.925 581.8 287.032 584.2 291.672 589C296.312 593.747 298.632 600.973 298.632 610.68C298.632 620.333 296.258 627.533 291.512 632.28C286.765 636.973 280.632 639.32 273.112 639.32ZM273.192 597.16C270.632 597.16 268.472 598.333 266.712 600.68C265.005 603.027 264.152 606.333 264.152 610.6C264.152 614.813 264.978 618.067 266.632 620.36C268.285 622.6 270.445 623.72 273.112 623.72C275.832 623.72 278.018 622.573 279.672 620.28C281.378 617.987 282.232 614.707 282.232 610.44C282.232 606.173 281.352 602.893 279.592 600.6C277.885 598.307 275.752 597.16 273.192 597.16Z" fill="white"/>
<path d="M320.335 637.4C320.335 638.253 317.801 638.68 312.735 638.68C307.615 638.68 305.055 638.28 305.055 637.48V585.32C305.055 583.453 306.041 582.52 308.015 582.52H323.295C337.321 582.52 344.335 587.987 344.335 598.92C344.335 602.227 343.695 605.24 342.415 607.96C341.135 610.627 339.321 612.76 336.975 614.36L347.055 631.16C346.628 632.44 345.241 633.907 342.895 635.56C339.695 637.853 337.055 639 334.975 639C332.895 639 331.348 638.253 330.335 636.76L322.815 619.24H320.335V637.4ZM320.335 596.68V608.68H320.735C325.801 608.68 328.335 606.573 328.335 602.36C328.335 600.44 327.828 599.027 326.815 598.12C325.855 597.16 324.255 596.68 322.015 596.68H320.335Z" fill="white"/>
<path d="M357.522 624.76V596.28H351.842C350.936 596.28 350.296 595.133 349.922 592.84C349.762 591.72 349.682 590.573 349.682 589.4C349.682 588.227 349.762 587.08 349.922 585.96C350.296 583.667 350.936 582.52 351.842 582.52H378.722C379.629 582.52 380.242 583.667 380.562 585.96C380.776 587.08 380.882 588.227 380.882 589.4C380.882 590.573 380.776 591.72 380.562 592.84C380.242 595.133 379.629 596.28 378.722 596.28H373.362V624.76H378.962C379.869 624.76 380.509 625.907 380.882 628.2C381.096 629.32 381.202 630.467 381.202 631.64C381.202 632.813 381.096 633.96 380.882 635.08C380.509 637.373 379.869 638.52 378.962 638.52H352.002C351.096 638.52 350.482 637.373 350.162 635.08C349.949 633.96 349.842 632.813 349.842 631.64C349.842 630.467 349.949 629.32 350.162 628.2C350.482 625.907 351.096 624.76 352.002 624.76H357.522Z" fill="white"/>
<path d="M410.299 639.32C402.832 639.32 396.726 636.867 391.979 631.96C387.286 627.053 384.939 619.907 384.939 610.52C384.939 601.08 387.312 593.933 392.059 589.08C396.859 584.227 403.019 581.8 410.539 581.8C418.112 581.8 424.219 584.2 428.859 589C433.499 593.747 435.819 600.973 435.819 610.68C435.819 620.333 433.446 627.533 428.699 632.28C423.952 636.973 417.819 639.32 410.299 639.32ZM410.379 597.16C407.819 597.16 405.659 598.333 403.899 600.68C402.192 603.027 401.339 606.333 401.339 610.6C401.339 614.813 402.166 618.067 403.819 620.36C405.472 622.6 407.632 623.72 410.299 623.72C413.019 623.72 415.206 622.573 416.859 620.28C418.566 617.987 419.419 614.707 419.419 610.44C419.419 606.173 418.539 602.893 416.779 600.6C415.072 598.307 412.939 597.16 410.379 597.16Z" fill="white"/>
<path d="M459.4 619C460.414 619.8 462.147 620.893 464.6 622.28C467.107 623.667 469.48 624.36 471.72 624.36C474.014 624.36 475.16 623.48 475.16 621.72C475.16 620.92 474.84 620.227 474.2 619.64C473.56 619 472.387 618.28 470.68 617.48C468.974 616.68 467.694 616.067 466.84 615.64C465.987 615.16 464.84 614.413 463.4 613.4C462.014 612.333 460.947 611.24 460.2 610.12C458.067 607.08 457 603.213 457 598.52C457 593.827 458.734 589.88 462.2 586.68C465.72 583.427 470.307 581.8 475.96 581.8C479.8 581.8 483.347 582.227 486.6 583.08C489.854 583.88 491.534 584.947 491.64 586.28C491.64 586.44 491.64 586.6 491.64 586.76C491.64 588.627 491.054 591 489.88 593.88C488.707 596.707 487.88 598.28 487.4 598.6C483.987 596.84 480.92 595.96 478.2 595.96C475.534 595.96 474.2 596.92 474.2 598.84C474.2 600.013 475.187 601.053 477.16 601.96C477.587 602.173 478.2 602.467 479 602.84C479.8 603.213 480.707 603.667 481.72 604.2C482.787 604.68 483.907 605.32 485.08 606.12C486.307 606.867 487.614 607.88 489 609.16C491.827 611.827 493.24 615.347 493.24 619.72C493.24 625.427 491.667 630.093 488.52 633.72C485.374 637.347 480.52 639.213 473.96 639.32C470.76 639.32 467.854 639.053 465.24 638.52C462.68 637.987 460.44 636.947 458.52 635.4C456.6 633.853 455.64 631.987 455.64 629.8C455.64 627.613 456.04 625.453 456.84 623.32C457.64 621.133 458.494 619.693 459.4 619Z" fill="white"/>
<path d="M523.58 639.32C516.114 639.32 510.007 636.867 505.26 631.96C500.567 627.053 498.22 619.907 498.22 610.52C498.22 601.08 500.594 593.933 505.34 589.08C510.14 584.227 516.3 581.8 523.82 581.8C531.394 581.8 537.5 584.2 542.14 589C546.78 593.747 549.1 600.973 549.1 610.68C549.1 620.333 546.727 627.533 541.98 632.28C537.234 636.973 531.1 639.32 523.58 639.32ZM523.66 597.16C521.1 597.16 518.94 598.333 517.18 600.68C515.474 603.027 514.62 606.333 514.62 610.6C514.62 614.813 515.447 618.067 517.1 620.36C518.754 622.6 520.914 623.72 523.58 623.72C526.3 623.72 528.487 622.573 530.14 620.28C531.847 617.987 532.7 614.707 532.7 610.44C532.7 606.173 531.82 602.893 530.06 600.6C528.354 598.307 526.22 597.16 523.66 597.16Z" fill="white"/>
<path d="M578.403 581.8C582.297 581.8 585.71 582.36 588.643 583.48C591.63 584.547 593.123 586.013 593.123 587.88C593.123 589.747 592.403 592.067 590.963 594.84C589.577 597.56 588.403 598.92 587.443 598.92C587.177 598.92 586.857 598.787 586.483 598.52C586.163 598.2 585.363 597.88 584.083 597.56C582.857 597.187 581.79 597 580.883 597C577.79 597 575.283 598.093 573.363 600.28C571.497 602.467 570.563 605.827 570.563 610.36C570.563 614.84 571.523 618.173 573.443 620.36C575.417 622.547 577.897 623.64 580.883 623.64C582.11 623.64 583.47 623.48 584.963 623.16C586.51 622.787 587.603 622.28 588.243 621.64C588.35 621.533 588.563 621.48 588.883 621.48C589.203 621.48 589.79 622.093 590.643 623.32C591.55 624.493 592.377 626.067 593.123 628.04C593.87 629.96 594.243 631.453 594.243 632.52C594.243 634.6 592.643 636.253 589.443 637.48C586.243 638.707 582.457 639.32 578.083 639.32C571.043 639.32 565.257 636.84 560.723 631.88C556.19 626.92 553.923 619.933 553.923 610.92C553.923 601.853 556.243 594.733 560.883 589.56C565.577 584.387 571.417 581.8 578.403 581.8Z" fill="white"/>
<path d="M605.647 624.76V596.28H599.967C599.06 596.28 598.421 595.133 598.047 592.84C597.887 591.72 597.807 590.573 597.807 589.4C597.807 588.227 597.887 587.08 598.047 585.96C598.421 583.667 599.06 582.52 599.967 582.52H626.847C627.754 582.52 628.367 583.667 628.687 585.96C628.901 587.08 629.007 588.227 629.007 589.4C629.007 590.573 628.901 591.72 628.687 592.84C628.367 595.133 627.754 596.28 626.847 596.28H621.487V624.76H627.087C627.994 624.76 628.634 625.907 629.007 628.2C629.221 629.32 629.327 630.467 629.327 631.64C629.327 632.813 629.221 633.96 629.007 635.08C628.634 637.373 627.994 638.52 627.087 638.52H600.127C599.221 638.52 598.607 637.373 598.287 635.08C598.074 633.96 597.967 632.813 597.967 631.64C597.967 630.467 598.074 629.32 598.287 628.2C598.607 625.907 599.221 624.76 600.127 624.76H605.647Z" fill="white"/>
<path d="M672.264 638.68C667.624 638.68 665.117 637.933 664.744 636.44L662.104 626.12H649.384L647.064 636.04C646.744 637.693 644.184 638.52 639.384 638.52C636.824 638.52 634.931 638.387 633.704 638.12C632.477 637.8 631.864 637.56 631.864 637.4L646.024 583.24C646.024 582.813 649.677 582.6 656.984 582.6C664.291 582.6 667.944 582.813 667.944 583.24L681.784 637.48C681.784 637.853 680.557 638.147 678.104 638.36C675.651 638.573 673.704 638.68 672.264 638.68ZM651.384 615.96H659.784L656.184 599.4H655.704L651.384 615.96Z" fill="white"/>
<path d="M686.286 633.8V584.04C686.286 582.92 688.979 582.36 694.366 582.36C699.806 582.36 702.526 582.92 702.526 584.04V623.24H714.846C715.806 623.24 716.473 624.493 716.846 627C717.006 628.227 717.086 629.48 717.086 630.76C717.086 632.04 717.006 633.347 716.846 634.68C716.419 637.24 715.726 638.52 714.766 638.52H690.126C688.953 638.52 688.019 638.04 687.326 637.08C686.633 636.12 686.286 635.027 686.286 633.8Z" fill="white"/>
<path d="M356.84 1.97045C345.688 5.02072 334.7 14.0021 329.661 24.0849C326.935 29.6771 324.622 38.15 324.622 42.7254C324.622 45.1826 324.374 45.4368 320.326 46.3688C313.386 48.0634 300.168 52.893 289.925 57.5531C267.95 67.4665 248.701 80.4302 229.866 97.7997L223.009 104.154L216.235 101.358C209.626 98.647 208.965 98.4776 197.812 98.4776C187.816 98.4776 185.503 98.7318 180.712 100.426C165.841 105.68 154.111 117.881 148.989 133.217C142.958 151.603 147.419 172.531 160.141 186.088L165.098 191.341L160.967 202.356C155.68 216.506 151.715 230.825 148.658 246.331C144.445 267.768 143.371 279.121 143.371 304.54C143.454 327.248 143.371 327.671 141.719 328.18C140.727 328.519 137.919 330.044 135.44 331.738C125.692 338.093 118.587 346.227 113.548 356.903C105.039 374.951 105.37 394.523 114.622 412.825C118.753 420.959 130.401 432.906 138.332 437.142C149.732 443.158 164.107 445.869 175.259 444.005L179.968 443.158L185.338 451.8C194.838 466.882 205.413 480.778 218.3 494.758C222.183 499.08 224.083 500.52 225.735 500.52C227.883 500.52 230.444 497.893 230.444 495.69C230.444 495.097 227.222 491.03 223.339 486.794C211.691 473.915 201.199 459.934 192.112 445.276L189.138 440.447L195.169 437.227C199.382 435.024 203.265 431.804 208.634 426.382C215.078 419.773 216.73 417.57 219.952 410.707C226.066 397.658 227.718 384.695 224.992 371.053C220.117 346.736 200.952 327.671 177.077 323.435C171.211 322.333 157.167 322.588 154.276 323.859C153.119 324.367 152.871 323.35 152.376 316.063C151.137 299.965 153.037 271.665 156.506 252.177C159.315 236.926 166.833 210.829 171.707 199.645L173.111 196.425L176.664 198.12C183.933 201.424 189.882 202.441 199.464 202.102C213.922 201.424 223.67 197.188 233.335 187.105C243.827 176.259 248.206 165.329 248.123 150.163C248.123 140.08 246.884 134.234 243.084 126.438C240.605 121.439 232.427 110.763 231.022 110.763C229.535 110.763 236.722 103.646 245.727 96.1052C266.215 79.1592 289.512 66.1955 314.46 57.8921C325.035 54.4181 326.274 54.2487 326.274 56.3669C326.274 57.2142 327.596 60.6881 329.165 64.0773C336.187 78.9897 351.553 88.7337 368.323 88.7337C387.572 88.7337 405.499 73.567 409.712 53.9098L410.703 49.1649L415.412 49.9275C436.809 53.3166 462.584 62.298 482.41 73.2281C494.637 80.0065 517.686 96.3593 518.594 98.9012C518.76 99.2401 517.686 101.358 516.364 103.561C512.068 110.509 510.912 115.254 510.994 125.591C510.994 133.132 511.325 135.759 512.812 139.572C517.025 150.247 525.947 159.483 535.86 163.296C544.369 166.6 557.009 166.431 565.931 162.872C567.005 162.449 567.914 163.889 570.31 169.735C579.81 193.036 584.271 219.048 583.362 245.992L583.197 251.245L575.597 251.584C569.318 251.838 567.088 252.347 563.37 254.296C557.422 257.346 551.722 263.107 548.83 269.123C546.682 273.444 546.435 274.631 546.435 282.765C546.435 290.136 546.765 292.339 548.252 295.728C550.73 301.151 557.752 308.607 563.04 311.234C567.17 313.267 567.335 313.522 566.592 315.725C565.27 319.537 556.018 335.467 550.152 343.94C543.13 354.107 527.021 371.222 517.603 378.425C510.498 383.932 496.124 392.913 494.554 392.913C494.141 392.913 492.159 391.388 490.093 389.609C485.219 385.203 479.602 383.254 472.993 383.762C467.045 384.271 463.41 385.965 459.031 390.287C455.231 393.93 452.753 398.505 452.009 403.335C451.431 406.809 451.348 406.894 447.3 407.487C440.691 408.334 422.352 408.249 414.256 407.233C387.655 403.928 361.714 392.574 339.987 374.527L337.757 372.748L339.492 367.579C341.474 361.394 341.557 358.259 339.822 352.328C338.005 345.973 331.561 339.364 325.53 337.5C320.408 335.975 316.36 335.805 312.478 336.907L309.834 337.67L306.53 329.959C302.316 320.046 299.26 309.2 297.69 298.44C295.955 287.171 296.616 266.666 298.929 256.498C301.655 244.721 300.829 245.823 307.108 246.161C314.212 246.585 318.426 245.399 323.217 241.671C327.513 238.366 330.9 231.927 331.726 225.911C332.387 220.658 330.322 213.625 326.687 208.626L323.713 204.729L325.448 202.271C328.257 198.289 337.839 189.647 345.109 184.732C356.758 176.768 372.041 170.837 384.102 169.566L388.646 169.057L390.215 173.124C392.281 178.378 397.898 183.97 402.855 185.664C407.729 187.359 414.09 187.359 418.964 185.664C422.765 184.393 428.465 179.649 430.117 176.514C431.026 174.904 431.191 174.904 436.478 177.191C449.366 182.784 465.558 196.425 473.24 208.118C479.519 217.608 484.724 231.842 486.045 243.111L486.624 247.856L483.815 248.788C480.51 249.974 475.554 254.55 473.654 258.278C471.836 262.006 471.258 268.53 472.497 273.021C473.075 275.139 474.975 278.528 476.793 280.646L480.097 284.459L477.041 290.136C469.44 304.286 458.618 314.877 445.731 320.893C437.056 324.96 430.861 326.316 420.451 326.316C410.455 326.4 405.333 325.468 396.824 321.995L391.702 319.961L391.372 314.962C391.124 311.234 390.463 309.285 388.728 306.997C385.176 302.168 382.863 300.982 376.254 300.812L370.471 300.727L368.323 297.253C362.706 288.272 360.31 271.919 362.954 260.396C366.588 244.721 378.237 230.232 390.711 225.996C394.098 224.81 394.181 224.81 396.246 227.521C401.451 234.384 411.199 234.638 416.238 228.029C417.808 225.996 418.138 225.911 420.865 226.843C424.747 228.114 432.678 234.299 435.569 238.112C443.17 248.449 444.657 261.413 439.452 272.767C437.8 276.325 437.717 276.41 434.082 276.156C427.804 275.563 422.93 279.969 422.93 286.154C422.93 289.289 420.947 289.967 413.182 289.374C407.399 288.95 402.69 287.001 398.311 283.188C395.172 280.477 391.95 280.392 390.298 283.104C388.398 286.069 389.802 288.781 395.585 292.763C404.094 298.524 403.929 298.524 429.621 298.101C434.991 298.016 437.304 297.592 439.37 296.237C442.344 294.457 444.657 289.713 444.326 286.239C444.161 285.052 445.4 281.24 447.135 277.681C458.37 254.296 447.713 228.029 422.682 217.523C420.121 216.421 417.395 214.642 416.651 213.541C412.438 206.847 401.616 206.423 396.742 212.693C395.916 213.795 393.19 215.405 390.711 216.252C381.624 219.302 376.419 222.607 369.48 229.809C364.027 235.486 362.045 238.197 358.988 244.721C350.479 262.853 350.562 281.24 359.236 299.118L363.284 307.421L362.045 311.403C359.979 318.436 363.284 326.655 369.48 329.705C373.363 331.569 379.724 331.484 383.607 329.451L386.746 327.756L392.776 330.298C402.607 334.28 409.134 335.551 420.038 335.551C440.278 335.636 456.966 328.519 470.845 314.115C476.71 308.014 485.797 294.796 487.532 289.797C488.441 287.171 488.772 287.001 492.324 287.001C494.389 287.001 497.528 286.239 499.428 285.391C503.642 283.443 508.598 277.511 509.755 273.105C510.912 268.869 510.251 261.836 508.516 258.363C506.616 254.634 501.659 249.974 498.437 248.873C495.959 248.026 495.628 247.517 495.215 243.958C493.563 231.334 491.167 222.861 486.541 213.117C482.163 204.136 479.023 199.645 471.093 191.172C461.427 180.835 450.687 173.294 438.048 167.702C434.248 166.007 433.669 165.499 433.669 163.465C433.669 151.518 423.178 141.012 411.116 141.012C401.781 141.012 394.594 145.757 390.629 154.314L388.233 159.398L379.806 160.839C357.336 164.821 338.996 174.819 322.474 192.273L314.626 200.577H309.008C290.338 200.577 279.929 222.352 291.246 237.688L293.477 240.569L291.329 249.635C284.307 278.867 287.198 310.048 299.425 336.399L302.482 343.008L300.829 344.872C297.277 348.939 296.12 352.413 296.12 359.445C296.12 364.783 296.534 366.986 297.938 369.613C300.582 374.866 306.447 379.865 311.486 381.39C317.186 383.169 320.326 383.085 326.274 381.051L331.148 379.357L338.748 385.288C361.632 403.25 386.746 413.503 415.908 416.722C424.499 417.654 447.466 417.315 451.431 416.214C452.67 415.79 453.331 416.299 454.157 418.163C455.644 421.637 460.353 426.466 464.484 428.669C467.292 430.194 469.275 430.618 474.975 430.618C481.171 430.618 482.493 430.364 485.88 428.33C493.728 423.501 498.52 414.774 498.024 405.962L497.776 402.149L503.807 398.76C532.391 382.915 556.926 355.971 573.201 322.842L577.331 314.369L581.793 313.86C590.384 313.013 599.306 306.574 603.685 298.27C610.872 284.29 607.402 266.751 595.589 257.854L592.284 255.312V240.061C592.284 231.588 591.871 221.251 591.458 217.099C589.475 199.475 583.775 177.446 577.497 163.042L575.101 157.534L578.736 153.467C586.832 144.571 590.302 134.742 589.558 122.626C589.062 113.814 586.832 107.459 581.958 100.765C574.853 91.1061 564.857 85.5139 553.044 84.7514C544.7 84.1583 538.421 85.5139 531.234 89.3268L525.616 92.2923L519.09 86.8696C491.828 64.3315 455.148 47.4703 420.038 41.4545L410.951 39.8446L409.547 34.5066C407.151 25.61 404.094 20.1026 397.816 13.6631C386.746 2.30938 371.463 -2.01185 356.84 1.97045Z" fill="white"/>
</svg>
